<?xml version="1.0" encoding="utf-8"?>
<!-- Generator: Adobe Illustrator 24.0.0, SVG Export Plug-In . SVG Version: 6.00 Build 0)  -->
<svg version="1.1" id="Layer_1" xmlns="http://www.w3.org/2000/svg" xmlns:xlink="http://www.w3.org/1999/xlink" x="0px" y="0px"
	 viewBox="0 0 1536 344.52" style="enable-background:new 0 0 1536 344.52;" xml:space="preserve">
<style type="text/css">
	.st0{fill:none;stroke:#FFFFFF;stroke-width:15;stroke-miterlimit:10;}
	.st1{fill:none;stroke:#FFFFFF;stroke-width:13;stroke-miterlimit:10;}
	.st2{fill:#FFFFFF;}
	.st3{fill:none;stroke:#FFFFFF;stroke-width:0.5;stroke-miterlimit:10;}
</style>
<ellipse class="st0" cx="209.39" cy="173.7" rx="164.2" ry="161.82"/>
<path class="st1" d="M226.77,103.44c0,0-27.22-6.9-46.04,7.64c0,0,52.75,24.65,91.53-4.64c0,0-60.4-56.83-122.66,4.85
	c0,0,45.48,53.66,129,15.82c0,0,9.51,64.68-70.84,70.84c0,0-63.94-11-62.63-61.52c0,0,67.29,24.23,74.75,102.53
	c0,0,4.66,56.67-16.22,87.8c0,0-21.44-34.3-7.64-74.56c0,0,12.68-52.94,89.66-44.74c0,0-22.1,53.75-95.36,43.13"/>
<path class="st1" d="M190.86,250.74c0,0-45.98-12.02-53.19-49.93c0,0,38.77-3.23,59.03,23.11"/>
<g>
	<path class="st2" d="M453.74,149.19c0.66,0.17,1.4,0.29,2.22,0.37c0.82,0.08,1.81,0.17,2.97,0.25c0.5-6.34,0.97-12.64,1.42-18.9
		c0.45-6.26,0.88-12.23,1.3-17.91c0.41-5.68,0.8-11.02,1.17-16c0.37-4.98,0.68-9.41,0.93-13.28c0-0.82,0.76-1.4,2.29-1.73
		c1.52-0.33,3.23-0.45,5.13-0.37c1.89,0.08,3.64,0.37,5.25,0.87c1.61,0.49,2.49,1.11,2.66,1.85c-0.33,4.12-0.72,8.69-1.17,13.71
		c-0.45,5.02-0.97,10.34-1.54,15.94c-0.58,5.6-1.2,11.43-1.85,17.48c-0.66,6.05-1.32,12.17-1.98,18.35c5.85-0.33,12-1.4,18.47-3.21
		c6.46-1.81,12.48-4.39,18.04-7.72c5.56-3.34,10.32-7.43,14.27-12.29c3.95-4.86,6.3-10.46,7.04-16.8c0.5-4.2,0.25-7.95-0.74-11.24
		c-0.99-3.29-2.45-6.16-4.39-8.58c-1.94-2.43-4.24-4.49-6.92-6.18c-2.68-1.69-5.46-3.07-8.34-4.14c-2.88-1.07-5.77-1.85-8.65-2.35
		c-2.88-0.49-5.52-0.78-7.91-0.86c-5.52-0.17-11.02,0.23-16.49,1.17c-5.48,0.95-10.67,2.29-15.57,4.02
		c-4.9,1.73-9.41,3.79-13.53,6.18c-4.12,2.39-7.53,4.86-10.25,7.41c-0.82,0.41-1.48,0.41-1.98,0c-0.49-0.41-0.78-1.03-0.86-1.85
		c-0.08-0.82,0.04-1.73,0.37-2.72c0.33-0.99,0.95-1.94,1.85-2.84c2.47-2.55,5.74-4.94,9.82-7.16c4.08-2.22,8.63-4.16,13.65-5.81
		c5.02-1.65,10.34-2.94,15.94-3.89c5.6-0.95,11.2-1.46,16.8-1.54c6.75-0.08,13.3,0.6,19.64,2.04c6.34,1.44,11.9,3.73,16.68,6.86
		c4.77,3.13,8.48,7.16,11.12,12.11c2.64,4.94,3.67,10.83,3.09,17.67c-0.49,6.01-2.04,11.33-4.63,15.94
		c-2.59,4.61-5.85,8.65-9.76,12.11c-3.91,3.46-8.32,6.38-13.22,8.77c-4.9,2.39-9.93,4.32-15.07,5.81
		c-5.15,1.48-10.24,2.59-15.26,3.34c-5.02,0.74-9.63,1.15-13.84,1.23c-0.66,6.1-1.32,12.13-1.98,18.1
		c-0.66,5.97-1.28,11.67-1.85,17.11c-0.58,5.43-1.11,10.54-1.61,15.32c-0.5,4.77-0.91,9.02-1.23,12.72
		c-0.08,0.66-0.64,1.25-1.67,1.79c-1.03,0.53-2.23,0.96-3.58,1.3c-1.36,0.33-2.74,0.53-4.14,0.62c-1.4,0.08-2.47,0-3.21-0.25
		c0.41-3.71,0.84-8.03,1.3-12.97c0.45-4.94,0.93-10.32,1.42-16.12c0.49-5.81,1.01-11.92,1.54-18.35c0.53-6.42,1.05-12.93,1.54-19.52
		c-1.15-0.16-2.24-0.33-3.27-0.49c-1.03-0.16-2-0.33-2.9-0.49c-0.82-0.08-1.3-0.39-1.42-0.93c-0.12-0.54-0.06-1.09,0.19-1.67
		c0.25-0.58,0.64-1.09,1.17-1.55C452.73,149.41,453.24,149.19,453.74,149.19z"/>
	<path class="st2" d="M565.54,138.69c2.55,0.08,4.61,1.34,6.18,3.77c1.56,2.43,2.72,5.25,3.46,8.46c0.82-0.25,1.71-0.39,2.66-0.43
		c0.94-0.04,1.79,0,2.53,0.12c0.74,0.12,1.36,0.35,1.85,0.68c0.49,0.33,0.7,0.78,0.62,1.36c-0.66,4.78-1.28,9.41-1.85,13.9
		c-0.58,4.49-1.07,9.08-1.48,13.77c-0.25,2.47-0.41,4.88-0.5,7.23c-0.08,2.34-0.04,4.43,0.12,6.24c0.16,1.82,0.45,3.29,0.87,4.45
		c0.41,1.15,1.03,1.77,1.85,1.85c0.9,0.17,2.1-0.62,3.58-2.35c1.48-1.73,3.17-4.16,5.07-7.29c1.15-1.81,2.16-3.93,3.03-6.36
		c0.87-2.43,1.67-4.71,2.41-6.86c0.33-0.82,0.8-1.4,1.42-1.73c0.62-0.33,1.21-0.39,1.79-0.18c0.57,0.2,1.01,0.64,1.3,1.3
		c0.29,0.66,0.27,1.52-0.06,2.59c-0.33,0.99-0.68,2.06-1.05,3.21c-0.37,1.15-0.78,2.35-1.24,3.58c-0.45,1.24-0.91,2.43-1.36,3.58
		c-0.45,1.15-0.93,2.18-1.42,3.09c-2.64,4.94-5.25,8.89-7.85,11.86c-2.59,2.97-5,4.49-7.23,4.57c-1.89,0.08-3.52-0.27-4.88-1.05
		c-1.36-0.78-2.53-1.85-3.52-3.21c-0.99-1.36-1.77-2.97-2.35-4.82c-0.58-1.85-1.03-3.89-1.36-6.12c-0.66,1.97-1.4,3.89-2.22,5.74
		c-0.83,1.85-1.79,3.5-2.9,4.94c-1.11,1.44-2.35,2.59-3.71,3.46c-1.36,0.87-2.9,1.34-4.63,1.42c-2.88,0.17-5.27-0.59-7.16-2.29
		c-1.9-1.69-3.4-3.95-4.51-6.79c-1.11-2.84-1.87-6.07-2.29-9.7c-0.41-3.62-0.53-7.29-0.37-10.99c0.25-5.6,1.11-10.89,2.59-15.87
		c1.48-4.98,3.38-9.37,5.68-13.16c2.31-3.79,4.92-6.75,7.84-8.9C559.38,139.63,562.41,138.61,565.54,138.69z M555.78,200.09
		c1.56-0.08,2.98-0.74,4.26-1.98c1.27-1.23,2.43-2.9,3.46-5c1.03-2.1,1.93-4.53,2.72-7.29c0.78-2.76,1.42-5.7,1.91-8.83
		c0.25-2.39,0.51-4.83,0.8-7.35c0.29-2.51,0.64-4.92,1.05-7.23v-0.37c0.16-1.4,0.25-2.9,0.25-4.51c0-1.61-0.14-3.11-0.43-4.51
		c-0.29-1.4-0.8-2.57-1.54-3.52c-0.74-0.95-1.81-1.46-3.21-1.55c-1.73-0.08-3.42,0.72-5.07,2.41c-1.65,1.69-3.13,3.97-4.45,6.86
		c-1.32,2.89-2.41,6.22-3.27,10.01c-0.86,3.79-1.34,7.7-1.42,11.74c0,0.5-0.04,1.34-0.13,2.53c-0.08,1.19-0.12,2.59-0.12,4.2
		c0,1.61,0.08,3.26,0.25,4.94c0.16,1.69,0.43,3.25,0.8,4.69c0.37,1.44,0.89,2.62,1.55,3.52
		C553.84,199.76,554.71,200.17,555.78,200.09z"/>
	<path class="st2" d="M629.53,208.98c-4.04,0.08-7.23-0.77-9.57-2.56c-2.35-1.78-4.12-4.09-5.31-6.91
		c-1.19-2.83-1.85-6.07-1.98-9.74c-0.12-3.66,0.04-7.33,0.49-10.99c0.45-3.67,1.09-7.18,1.92-10.56c0.82-3.38,1.65-6.26,2.47-8.65
		c-1.98-0.33-3.64-0.8-5-1.42c-1.36-0.62-2.99-1.63-4.88-3.03c-0.33,1.48-0.83,3.25-1.48,5.31c-0.66,2.06-1.57,5.19-2.72,9.39
		c-0.49,1.65-1.01,3.32-1.54,5c-0.54,1.69-1.09,3.4-1.67,5.13c-0.33,0.99-0.82,1.63-1.48,1.91c-0.66,0.29-1.28,0.35-1.85,0.19
		c-0.58-0.17-1.03-0.56-1.36-1.18c-0.33-0.62-0.33-1.34,0-2.16l1.36-4.32c1.4-4.7,2.47-8.77,3.21-12.23
		c0.74-3.46,1.24-6.51,1.48-9.14c0.16-0.99,0.2-1.75,0.12-2.29c-0.08-0.53-0.17-0.88-0.25-1.05c-0.17-0.41-0.43-0.8-0.8-1.17
		c-0.37-0.37-0.68-0.68-0.93-0.93c-0.33-0.41-0.04-1.24,0.87-2.47c0.91-1.24,2-2.47,3.27-3.71c1.28-1.24,2.51-2.24,3.71-3.03
		c1.19-0.78,1.91-0.92,2.16-0.43c0.58,1.24,1.48,2.51,2.72,3.83c1.23,1.32,2.53,2.53,3.89,3.65c1.36,1.11,2.62,2.06,3.77,2.84
		c1.15,0.78,1.93,1.21,2.35,1.3c1.89,0.58,3.38,1.24,4.45,1.98c1.07,0.74,1.83,1.52,2.29,2.35c0.45,0.82,0.68,1.69,0.68,2.59
		c0,0.91-0.12,1.77-0.37,2.59c-1.23,4.37-2.35,9.04-3.34,14.02c-0.99,4.98-1.54,9.55-1.67,13.71c-0.12,4.16,0.37,7.57,1.48,10.25
		c1.11,2.67,3.11,3.93,5.99,3.77c1.65,0,3.21-0.66,4.69-1.98c1.48-1.32,2.88-3.05,4.2-5.19c1.32-2.14,2.55-4.59,3.71-7.35
		c1.15-2.76,2.22-5.66,3.21-8.71c0.25-0.82,0.7-1.42,1.36-1.79c0.66-0.37,1.27-0.49,1.85-0.37c0.58,0.12,1.03,0.48,1.36,1.05
		c0.33,0.58,0.37,1.36,0.12,2.35c-1.16,3.62-2.43,7.25-3.83,10.87c-1.4,3.62-3.03,6.85-4.88,9.68c-1.85,2.83-3.95,5.14-6.3,6.92
		C635.15,208.09,632.49,208.98,629.53,208.98z"/>
	<path class="st2" d="M651.15,160.92c0.08-0.25,0.31-0.84,0.68-1.79c0.37-0.95,0.95-1.96,1.73-3.03c0.78-1.07,1.79-2,3.03-2.78
		c1.24-0.78,2.76-1.17,4.57-1.17c0.74-3.95,1.96-7.23,3.64-9.82c1.69-2.59,3.85-4.02,6.48-4.26c2.47,0,4.61,0.95,6.42,2.84
		c1.81,1.9,3.27,4.47,4.38,7.72c1.11,3.25,1.81,7.06,2.1,11.42c0.29,4.37,0.06,9.02-0.68,13.96c-0.99,5.93-2.55,11.41-4.7,16.43
		c1.48,0.66,2.92,0.95,4.33,0.87c1.98-0.08,3.99-1.38,6.05-3.89c2.06-2.51,4.12-6.36,6.18-11.55c0.16-0.41,0.33-0.95,0.49-1.61
		c0.16-0.9,0.58-1.59,1.24-2.04c0.66-0.45,1.3-0.62,1.92-0.5c0.62,0.13,1.09,0.56,1.42,1.3c0.33,0.74,0.29,1.81-0.12,3.21
		c-0.74,2.97-1.75,5.77-3.03,8.4c-1.28,2.64-2.72,4.98-4.33,7.04c-1.61,2.06-3.36,3.72-5.25,5c-1.9,1.27-3.83,2-5.81,2.16
		c-1.23,0.17-2.41,0.12-3.52-0.12c-1.11-0.25-2.16-0.58-3.15-0.99c-2.3,3.71-4.8,6.65-7.47,8.83c-2.68,2.18-5.33,3.27-7.97,3.27
		c-2.47,0-4.61-0.92-6.42-2.78c-1.81-1.86-3.23-4.41-4.26-7.66c-1.03-3.25-1.67-7.06-1.92-11.43c-0.25-4.36,0-9.02,0.74-13.96
		c0.33-2.39,0.78-4.65,1.36-6.8C649.87,165.08,650.49,162.98,651.15,160.92z M662.14,200.46c1.15,0,2.41-0.62,3.77-1.85
		c1.36-1.24,2.66-2.92,3.89-5.06c-1.4-1.57-2.66-3.44-3.77-5.62c-1.11-2.18-2.06-4.53-2.84-7.04c-0.78-2.51-1.4-5.11-1.86-7.78
		c-0.45-2.68-0.76-5.37-0.93-8.09c-0.49,1.65-0.97,3.23-1.42,4.76c-0.45,1.52-0.76,2.95-0.92,4.26c-0.66,3.7-1.05,7.16-1.17,10.37
		c-0.12,3.21,0,6.01,0.37,8.4c0.37,2.39,0.97,4.26,1.79,5.62C659.88,199.77,660.91,200.46,662.14,200.46z M676.47,173.77
		c0.99-5.85,1.38-10.54,1.17-14.08c-0.21-3.54-0.66-6.24-1.36-8.09c-0.7-1.85-1.52-3.03-2.47-3.52c-0.95-0.5-1.67-0.62-2.16-0.37
		c-0.66,0.33-1.24,1.23-1.73,2.72c-0.49,1.48-0.86,3.3-1.11,5.44c-0.25,2.14-0.37,4.53-0.37,7.17c0,2.63,0.19,5.29,0.56,7.96
		c0.37,2.68,0.93,5.27,1.67,7.78c0.74,2.51,1.69,4.72,2.84,6.61C674.74,182.01,675.73,178.14,676.47,173.77z"/>
	<path class="st2" d="M715.39,200.7c1.65,0,3.27-0.66,4.88-1.97c1.61-1.32,3.17-3.04,4.69-5.19c1.52-2.14,2.98-4.59,4.39-7.35
		c1.4-2.76,2.72-5.66,3.95-8.71c0.33-0.82,0.82-1.42,1.48-1.79c0.66-0.37,1.28-0.49,1.85-0.37c0.58,0.12,1.01,0.47,1.3,1.05
		c0.29,0.58,0.27,1.36-0.06,2.35c-1.4,3.63-2.99,7.25-4.76,10.87c-1.77,3.62-3.71,6.85-5.81,9.69c-2.1,2.84-4.43,5.15-6.98,6.92
		c-2.55,1.77-5.35,2.66-8.4,2.66c-4.2-0.41-7.56-2.7-10.07-6.86c-2.51-4.16-4.3-9.49-5.37-16c-1.07-6.51-1.52-13.84-1.36-21.99
		c0.17-8.15,0.82-16.45,1.98-24.9c1.15-8.44,2.76-16.68,4.82-24.7c2.06-8.03,4.39-15.18,6.98-21.44c2.59-6.26,5.44-11.26,8.53-15.01
		c3.09-3.75,6.24-5.58,9.45-5.5c2.06,0.08,3.68,0.83,4.88,2.22c1.19,1.4,2.1,3.24,2.72,5.5c0.62,2.27,0.97,4.8,1.05,7.6
		c0.08,2.8,0.04,5.62-0.12,8.46c-0.17,2.84-0.43,5.58-0.8,8.21c-0.37,2.63-0.68,4.86-0.93,6.67c-1.48,9.22-3.4,17.62-5.74,25.2
		c-2.35,7.58-4.8,14.37-7.35,20.38c-2.55,6.01-5.06,11.27-7.54,15.75c-2.47,4.49-4.57,8.22-6.3,11.18c0.49,5.6,1.44,9.99,2.84,13.16
		C710.98,199.98,712.91,201.28,715.39,200.7z M725.89,83.59c-1.73,0.25-3.42,1.85-5.06,4.82c-1.65,2.97-3.21,6.84-4.7,11.61
		c-1.48,4.78-2.86,10.23-4.14,16.37c-1.28,6.14-2.35,12.5-3.21,19.09c-0.87,6.59-1.52,13.18-1.98,19.76
		c-0.45,6.59-0.64,12.73-0.56,18.41c1.4-2.47,3.01-5.5,4.82-9.08c1.81-3.58,3.66-7.82,5.56-12.73c1.89-4.9,3.79-10.56,5.68-16.99
		c1.89-6.42,3.66-13.75,5.31-21.99c0.08-0.58,0.25-1.73,0.49-3.46c0.25-1.73,0.49-3.69,0.74-5.87c0.25-2.18,0.41-4.49,0.5-6.92
		c0.08-2.43,0.04-4.63-0.12-6.61c-0.17-1.98-0.49-3.58-0.99-4.82C727.74,83.96,726.96,83.43,725.89,83.59z"/>
	<path class="st2" d="M753.93,201.57c1.98,0,3.89-0.68,5.74-2.04c1.85-1.36,3.58-3.17,5.19-5.43c1.61-2.27,3.05-4.84,4.33-7.72
		c1.27-2.88,2.41-5.85,3.4-8.9c0.25-0.82,0.7-1.42,1.36-1.79c0.66-0.37,1.28-0.49,1.85-0.37c0.58,0.12,1.03,0.47,1.36,1.05
		c0.33,0.58,0.37,1.36,0.12,2.35c-1.16,3.63-2.53,7.29-4.14,10.99c-1.6,3.71-3.46,7.04-5.56,10.01c-2.1,2.97-4.43,5.37-6.98,7.23
		c-2.55,1.85-5.27,2.78-8.15,2.78c-3.95,0-7.31-0.93-10.07-2.77c-2.76-1.85-4.92-4.44-6.49-7.77c-1.56-3.33-2.55-7.3-2.97-11.9
		c-0.41-4.6-0.29-9.62,0.37-15.05c0.41-3.53,1.22-7.28,2.41-11.22c1.19-3.94,2.76-7.56,4.7-10.85c1.93-3.29,4.2-6,6.79-8.14
		c2.59-2.14,5.5-3.21,8.71-3.21c2.22,0,3.93,0.8,5.13,2.4c1.19,1.6,2.04,3.54,2.53,5.8c0.49,2.26,0.68,4.6,0.56,7.03
		c-0.12,2.43-0.35,4.42-0.68,5.98c-1.32,6.66-3.4,12.74-6.24,18.25c-2.84,5.51-6.94,10.77-12.29,15.78c0.91,2.22,2.1,4.03,3.58,5.43
		C749.98,200.87,751.79,201.57,753.93,201.57z M742.81,175.75c-0.25,1.97-0.33,4.12-0.25,6.43c0.08,2.3,0.37,4.57,0.86,6.79
		c1.98-2.22,3.72-4.38,5.25-6.49c1.52-2.1,2.84-4.3,3.95-6.61c1.11-2.31,2.08-4.76,2.9-7.35c0.82-2.6,1.52-5.5,2.1-8.71
		c0.08-0.5,0.2-1.42,0.37-2.78c0.16-1.36,0.25-2.72,0.25-4.08c0-1.36-0.19-2.55-0.56-3.58c-0.37-1.03-1.05-1.55-2.04-1.55
		c-1.23,0-2.41,0.54-3.52,1.61c-1.11,1.07-2.12,2.43-3.03,4.08c-0.91,1.65-1.71,3.5-2.41,5.56c-0.7,2.06-1.32,4.12-1.85,6.18
		c-0.54,2.06-0.97,4.02-1.3,5.87C743.22,172.97,742.97,174.51,742.81,175.75z"/>
	<path class="st2" d="M792.22,209.72c-5.44-0.17-10.03-2.08-13.77-5.74c-3.75-3.66-6.16-9.16-7.23-16.49
		c-0.74-0.74-1.11-1.56-1.11-2.47l0.74-1.6c-0.08-0.49-0.12-1.01-0.12-1.54c0-0.53,0-1.09,0-1.67c0-0.99,0.11-2.08,0.31-3.27
		c0.21-1.19,0.56-2.33,1.05-3.4c0.49-1.07,1.13-2.04,1.91-2.9c0.78-0.86,1.75-1.46,2.9-1.79c1.4-3.29,2.68-6.44,3.83-9.45
		c1.15-3.01,2.1-5.7,2.84-8.09c-0.33-2.3-0.41-4.36-0.25-6.18c0.16-1.81,0.7-3.35,1.61-4.63c0.91-1.28,2.27-2.21,4.08-2.78
		c1.81-0.58,4.2-0.78,7.17-0.62c-1.15,5.52-1.13,10.85,0.06,16c1.19,5.15,2.74,10.05,4.63,14.7c1.9,4.65,3.71,9.02,5.44,13.09
		c1.73,4.08,2.51,7.72,2.35,10.93c-0.25,3.46-1.07,6.55-2.47,9.27c1.56-0.66,3.11-1.77,4.63-3.34c1.52-1.56,2.98-3.42,4.38-5.56
		c1.4-2.14,2.76-4.49,4.08-7.05c1.32-2.55,2.51-5.1,3.58-7.66c0.33-0.82,0.82-1.4,1.48-1.73c0.66-0.33,1.27-0.43,1.85-0.31
		c0.58,0.12,1.03,0.45,1.36,0.99c0.33,0.54,0.33,1.29,0,2.29c-2.14,6.18-4.51,11.41-7.1,15.69c-2.6,4.28-5.38,7.66-8.34,10.13
		c-2.97,2.47-6.1,4.12-9.39,4.94C799.43,210.3,795.93,210.38,792.22,209.72z M779.37,177.11c-0.99,2.72-2.14,5.52-3.46,8.4
		c0,2.64,0.41,4.96,1.24,6.98c0.82,2.02,1.87,3.73,3.15,5.13s2.68,2.43,4.2,3.09c1.52,0.66,3.02,0.95,4.51,0.87
		c2.31-0.17,3.95-1.36,4.94-3.58c0.99-2.23,1.24-5.19,0.74-8.9c-0.25-1.56-0.72-3.46-1.42-5.68c-0.7-2.22-1.48-4.65-2.35-7.29
		c-0.86-2.64-1.75-5.39-2.66-8.28c-0.91-2.88-1.65-5.76-2.22-8.65c-0.83,1.97-1.54,3.81-2.16,5.5c-0.62,1.69-1.22,3.32-1.79,4.88
		c0.74,0.49,1.36,1.11,1.85,1.86c0.49,0.74,0.82,1.56,0.99,2.47c0.16,0.91,0.1,1.85-0.19,2.84c-0.29,0.99-0.88,1.94-1.79,2.84
		C781.89,177.6,780.69,176.78,779.37,177.11z"/>
	<path class="st2" d="M892.16,138.69c1.48,0.08,2.8,0.58,3.95,1.48c1.15,0.91,2.18,2.1,3.09,3.58c1.4-10.7,2.93-21.39,4.58-32.06
		c1.65-10.66,3.62-21.93,5.93-33.79c0.33-0.82,1.13-1.48,2.41-1.98c1.27-0.5,2.61-0.76,4.01-0.8c1.4-0.04,2.61,0.13,3.64,0.5
		c1.03,0.37,1.5,0.97,1.42,1.79c-2.39,13.26-4.59,26.25-6.61,38.98c-2.02,12.73-3.89,25.51-5.62,38.36
		c0.08,0.17,0.12,0.37,0.12,0.62c-0.33,2.39-0.64,4.59-0.93,6.61c-0.29,2.02-0.56,3.99-0.8,5.93c-0.24,1.94-0.47,3.91-0.68,5.93
		c-0.2,2.02-0.39,4.18-0.55,6.48c-0.25,2.47-0.42,4.88-0.49,7.23c-0.08,2.34-0.04,4.43,0.12,6.24c0.16,1.82,0.45,3.29,0.86,4.45
		c0.42,1.15,1.03,1.77,1.85,1.85c0.91,0.17,2.1-0.62,3.59-2.35c1.48-1.73,3.17-4.16,5.06-7.29c1.15-1.81,2.16-3.93,3.02-6.36
		c0.87-2.43,1.67-4.71,2.41-6.86c0.33-0.82,0.8-1.4,1.42-1.73c0.62-0.33,1.21-0.39,1.79-0.18c0.58,0.2,1.01,0.64,1.3,1.3
		c0.29,0.66,0.27,1.52-0.07,2.59c-0.33,0.99-0.68,2.06-1.05,3.21c-0.37,1.15-0.79,2.35-1.24,3.58c-0.45,1.24-0.91,2.43-1.36,3.58
		c-0.45,1.15-0.93,2.18-1.42,3.09c-2.64,4.94-5.25,8.89-7.84,11.86c-2.6,2.97-5,4.49-7.23,4.57c-1.9,0.08-3.52-0.27-4.88-1.05
		c-1.35-0.78-2.53-1.85-3.52-3.21c-0.99-1.36-1.77-2.97-2.34-4.82c-0.58-1.85-1.03-3.89-1.36-6.12c-0.66,1.97-1.4,3.89-2.23,5.74
		c-0.82,1.85-1.79,3.5-2.9,4.94c-1.11,1.44-2.35,2.59-3.71,3.46c-1.36,0.87-2.9,1.34-4.63,1.42c-2.89,0.17-5.27-0.59-7.17-2.29
		c-1.89-1.69-3.4-3.95-4.51-6.79c-1.11-2.84-1.87-6.07-2.28-9.7c-0.41-3.62-0.53-7.29-0.37-10.99c0.25-5.6,1.11-10.89,2.6-15.87
		c1.48-4.98,3.38-9.37,5.68-13.16c2.3-3.79,4.92-6.75,7.84-8.9C886.01,139.63,889.03,138.61,892.16,138.69z M882.4,200.09
		c1.56-0.08,2.98-0.74,4.26-1.98c1.28-1.23,2.43-2.9,3.46-5c1.03-2.1,1.93-4.53,2.72-7.29c0.78-2.76,1.42-5.7,1.91-8.83
		c0.16-1.81,0.37-3.66,0.62-5.56c0.25-1.89,0.49-3.75,0.74-5.56c0.25-1.81,0.49-3.56,0.74-5.25c0.25-1.69,0.49-3.19,0.74-4.51
		c-0.25-2.14-0.82-3.99-1.73-5.56c-0.91-1.56-2.31-2.43-4.2-2.59c-1.73-0.08-3.42,0.72-5.06,2.41c-1.65,1.69-3.13,3.97-4.45,6.86
		c-1.32,2.89-2.41,6.22-3.27,10.01c-0.86,3.79-1.34,7.7-1.42,11.74c0,0.5-0.04,1.34-0.12,2.53c-0.08,1.19-0.12,2.59-0.12,4.2
		c0,1.61,0.08,3.26,0.25,4.94c0.16,1.69,0.43,3.25,0.8,4.69c0.37,1.44,0.88,2.62,1.54,3.52
		C880.47,199.76,881.33,200.17,882.4,200.09z"/>
	<path class="st2" d="M942.94,201.57c1.98,0,3.89-0.68,5.75-2.04c1.85-1.36,3.58-3.17,5.19-5.43c1.6-2.27,3.04-4.84,4.33-7.72
		c1.27-2.88,2.41-5.85,3.39-8.9c0.25-0.82,0.7-1.42,1.36-1.79c0.66-0.37,1.28-0.49,1.85-0.37c0.58,0.12,1.03,0.47,1.36,1.05
		c0.33,0.58,0.37,1.36,0.12,2.35c-1.16,3.63-2.53,7.29-4.14,10.99c-1.6,3.71-3.46,7.04-5.56,10.01c-2.1,2.97-4.43,5.37-6.98,7.23
		c-2.55,1.85-5.27,2.78-8.15,2.78c-3.95,0-7.31-0.93-10.07-2.77c-2.76-1.85-4.92-4.44-6.49-7.77c-1.56-3.33-2.55-7.3-2.96-11.9
		c-0.41-4.6-0.29-9.62,0.37-15.05c0.41-3.53,1.22-7.28,2.41-11.22c1.19-3.94,2.76-7.56,4.69-10.85c1.94-3.29,4.2-6,6.8-8.14
		c2.6-2.14,5.5-3.21,8.71-3.21c2.22,0,3.93,0.8,5.13,2.4c1.19,1.6,2.04,3.54,2.53,5.8c0.49,2.26,0.68,4.6,0.56,7.03
		c-0.12,2.43-0.35,4.42-0.68,5.98c-1.32,6.66-3.4,12.74-6.24,18.25c-2.84,5.51-6.94,10.77-12.29,15.78c0.91,2.22,2.1,4.03,3.58,5.43
		C938.98,200.87,940.8,201.57,942.94,201.57z M931.82,175.75c-0.25,1.97-0.33,4.12-0.25,6.43c0.08,2.3,0.37,4.57,0.87,6.79
		c1.97-2.22,3.73-4.38,5.25-6.49c1.53-2.1,2.84-4.3,3.95-6.61c1.11-2.31,2.08-4.76,2.9-7.35c0.82-2.6,1.53-5.5,2.1-8.71
		c0.08-0.5,0.21-1.42,0.37-2.78c0.16-1.36,0.25-2.72,0.25-4.08c0-1.36-0.18-2.55-0.55-3.58c-0.38-1.03-1.05-1.55-2.04-1.55
		c-1.24,0-2.41,0.54-3.52,1.61c-1.11,1.07-2.12,2.43-3.03,4.08c-0.91,1.65-1.71,3.5-2.41,5.56c-0.7,2.06-1.32,4.12-1.85,6.18
		c-0.54,2.06-0.97,4.02-1.3,5.87C932.23,172.97,931.98,174.51,931.82,175.75z"/>
	<path class="st2" d="M1009.4,87.79c2.72-2.8,6.81-5.25,12.29-7.35c5.48-2.1,11.72-3.83,18.72-5.19c7-1.36,14.43-2.39,22.3-3.09
		c7.86-0.7,15.54-1.09,23.04-1.17c7.49-0.08,14.5,0.17,21,0.74c6.5,0.58,11.86,1.44,16.06,2.59c0.82,0.17,0.91,0.8,0.25,1.91
		c-0.66,1.11-1.61,2.26-2.84,3.46c-1.23,1.19-2.6,2.24-4.08,3.15c-1.48,0.91-2.64,1.24-3.46,0.99c-3.46-0.74-8.01-1.34-13.65-1.79
		c-5.64-0.45-11.8-0.68-18.47-0.68c-6.67,0-13.59,0.25-20.76,0.74c-7.17,0.5-13.96,1.28-20.38,2.35
		c-6.43,1.07-12.23,2.49-17.42,4.26c-5.19,1.77-9.19,3.93-11.99,6.49c-0.82,0.41-1.48,0.41-1.97,0c-0.49-0.41-0.78-1.03-0.86-1.85
		c-0.08-0.82,0.04-1.73,0.37-2.72C1007.87,89.64,1008.49,88.7,1009.4,87.79z M1093.65,146.72c-2.8-0.25-6.08-0.27-9.82-0.06
		c-3.75,0.21-7.75,0.5-11.98,0.87c-4.24,0.37-8.63,0.78-13.16,1.24c-4.53,0.45-8.97,0.84-13.34,1.17
		c-0.74,6.51-1.48,12.95-2.22,19.33c-0.74,6.38-1.47,12.54-2.17,18.47c-0.7,5.93-1.34,11.51-1.91,16.74
		c-0.58,5.23-1.03,9.9-1.36,14.02c-0.08,0.66-0.64,1.25-1.67,1.79c-1.03,0.53-2.22,0.96-3.58,1.3c-1.36,0.33-2.74,0.53-4.13,0.62
		c-1.41,0.08-2.47,0-3.22-0.25c0.41-4.04,0.88-8.73,1.42-14.08c0.53-5.35,1.09-11.14,1.67-17.36c0.58-6.22,1.16-12.72,1.73-19.52
		c0.58-6.79,1.15-13.65,1.73-20.57c-3.38,0-6.49-0.14-9.33-0.43c-2.84-0.29-5.31-0.8-7.41-1.54c-2.1-0.74-3.79-1.73-5.07-2.97
		c-1.28-1.24-1.95-2.8-2.04-4.69c3.71,1.07,7.6,1.79,11.67,2.16c4.08,0.37,8.34,0.56,12.79,0.56c0.41-5.27,0.82-10.48,1.23-15.63
		c0.41-5.14,0.8-10.07,1.17-14.76c0.37-4.7,0.7-9.12,0.99-13.28c0.29-4.16,0.56-7.93,0.8-11.3c0-0.82,0.76-1.4,2.29-1.73
		c1.53-0.33,3.23-0.45,5.13-0.37c1.89,0.08,3.64,0.37,5.25,0.87c1.61,0.49,2.49,1.11,2.66,1.85c-0.58,7.09-1.36,15.28-2.35,24.59
		c-0.99,9.31-2.06,19.02-3.21,29.15c5.93-0.41,11.63-0.87,17.11-1.36c5.48-0.49,10.38-0.74,14.7-0.74c4.33,0,7.89,0.41,10.69,1.23
		C1091.51,142.85,1093.15,144.41,1093.65,146.72z"/>
	<path class="st2" d="M1129.47,200.7c1.65,0,3.27-0.66,4.88-1.97c1.61-1.32,3.17-3.04,4.7-5.19c1.52-2.14,2.98-4.59,4.38-7.35
		c1.4-2.76,2.72-5.66,3.96-8.71c0.32-0.82,0.82-1.42,1.48-1.79c0.66-0.37,1.27-0.49,1.85-0.37c0.58,0.12,1.01,0.47,1.3,1.05
		c0.29,0.58,0.27,1.36-0.07,2.35c-1.4,3.63-2.98,7.25-4.75,10.87c-1.77,3.62-3.71,6.85-5.81,9.69c-2.1,2.84-4.43,5.15-6.98,6.92
		c-2.55,1.77-5.36,2.66-8.4,2.66c-4.2-0.41-7.55-2.7-10.07-6.86c-2.51-4.16-4.31-9.49-5.37-16c-1.07-6.51-1.53-13.84-1.36-21.99
		c0.16-8.15,0.82-16.45,1.97-24.9c1.16-8.44,2.76-16.68,4.82-24.7c2.06-8.03,4.39-15.18,6.98-21.44c2.6-6.26,5.43-11.26,8.52-15.01
		c3.09-3.75,6.24-5.58,9.45-5.5c2.06,0.08,3.69,0.83,4.88,2.22c1.19,1.4,2.1,3.24,2.72,5.5c0.61,2.27,0.96,4.8,1.05,7.6
		c0.08,2.8,0.04,5.62-0.12,8.46c-0.17,2.84-0.43,5.58-0.8,8.21c-0.37,2.63-0.68,4.86-0.93,6.67c-1.48,9.22-3.4,17.62-5.74,25.2
		c-2.35,7.58-4.8,14.37-7.35,20.38c-2.56,6.01-5.07,11.27-7.54,15.75c-2.47,4.49-4.57,8.22-6.3,11.18c0.49,5.6,1.44,9.99,2.84,13.16
		C1125.07,199.98,1127,201.28,1129.47,200.7z M1139.97,83.59c-1.73,0.25-3.42,1.85-5.07,4.82c-1.65,2.97-3.21,6.84-4.69,11.61
		c-1.48,4.78-2.86,10.23-4.14,16.37c-1.28,6.14-2.34,12.5-3.21,19.09c-0.87,6.59-1.52,13.18-1.98,19.76
		c-0.45,6.59-0.64,12.73-0.56,18.41c1.4-2.47,3-5.5,4.82-9.08c1.81-3.58,3.67-7.82,5.56-12.73c1.89-4.9,3.79-10.56,5.68-16.99
		c1.9-6.42,3.67-13.75,5.32-21.99c0.08-0.58,0.25-1.73,0.49-3.46c0.25-1.73,0.49-3.69,0.74-5.87c0.25-2.18,0.41-4.49,0.49-6.92
		c0.08-2.43,0.05-4.63-0.12-6.61c-0.16-1.98-0.49-3.58-0.99-4.82C1141.83,83.96,1141.05,83.43,1139.97,83.59z"/>
	<path class="st2" d="M1168.02,201.57c1.98,0,3.89-0.68,5.75-2.04c1.85-1.36,3.58-3.17,5.19-5.43c1.61-2.27,3.05-4.84,4.32-7.72
		c1.28-2.88,2.41-5.85,3.4-8.9c0.24-0.82,0.69-1.42,1.36-1.79c0.66-0.37,1.27-0.49,1.85-0.37c0.58,0.12,1.03,0.47,1.36,1.05
		c0.33,0.58,0.37,1.36,0.12,2.35c-1.15,3.63-2.53,7.29-4.13,10.99c-1.61,3.71-3.46,7.04-5.56,10.01c-2.1,2.97-4.43,5.37-6.98,7.23
		c-2.55,1.85-5.27,2.78-8.15,2.78c-3.95,0-7.31-0.93-10.07-2.77c-2.76-1.85-4.92-4.44-6.49-7.77c-1.56-3.33-2.55-7.3-2.96-11.9
		c-0.41-4.6-0.29-9.62,0.37-15.05c0.41-3.53,1.21-7.28,2.41-11.22c1.19-3.94,2.76-7.56,4.69-10.85c1.93-3.29,4.2-6,6.8-8.14
		c2.6-2.14,5.5-3.21,8.71-3.21c2.22,0,3.93,0.8,5.12,2.4c1.2,1.6,2.04,3.54,2.53,5.8c0.5,2.26,0.68,4.6,0.55,7.03
		c-0.12,2.43-0.35,4.42-0.68,5.98c-1.32,6.66-3.4,12.74-6.24,18.25c-2.84,5.51-6.94,10.77-12.29,15.78c0.91,2.22,2.1,4.03,3.58,5.43
		C1164.06,200.87,1165.87,201.57,1168.02,201.57z M1156.9,175.75c-0.25,1.97-0.33,4.12-0.25,6.43c0.08,2.3,0.37,4.57,0.86,6.79
		c1.98-2.22,3.73-4.38,5.25-6.49c1.52-2.1,2.84-4.3,3.95-6.61c1.12-2.31,2.08-4.76,2.91-7.35c0.82-2.6,1.52-5.5,2.1-8.71
		c0.08-0.5,0.21-1.42,0.37-2.78c0.17-1.36,0.25-2.72,0.25-4.08c0-1.36-0.19-2.55-0.56-3.58c-0.37-1.03-1.05-1.55-2.04-1.55
		c-1.23,0-2.41,0.54-3.52,1.61c-1.11,1.07-2.12,2.43-3.03,4.08c-0.91,1.65-1.71,3.5-2.41,5.56c-0.7,2.06-1.32,4.12-1.85,6.18
		c-0.54,2.06-0.97,4.02-1.3,5.87C1157.31,172.97,1157.06,174.51,1156.9,175.75z"/>
	<path class="st2" d="M1221.87,145.23c0.33-0.82,1.13-1.5,2.41-2.04c1.28-0.53,2.61-0.88,4.01-1.05c1.4-0.16,2.61-0.08,3.65,0.25
		c1.03,0.33,1.5,0.91,1.42,1.73c-0.33,2.39-0.76,5.17-1.3,8.34c-0.54,3.17-1.07,6.43-1.6,9.76c-0.54,3.34-1.05,6.61-1.55,9.82
		c-0.49,3.21-0.83,5.97-0.99,8.28c-0.25,2.47-0.41,4.88-0.49,7.23c-0.08,2.34-0.04,4.43,0.12,6.24c0.16,1.82,0.45,3.29,0.86,4.45
		c0.41,1.15,1.03,1.77,1.86,1.85c0.9,0.17,2.1-0.62,3.58-2.35c1.48-1.73,3.17-4.16,5.06-7.29c1.15-1.81,2.16-3.93,3.03-6.36
		c0.86-2.43,1.67-4.71,2.41-6.86c0.33-0.82,0.8-1.4,1.42-1.73c0.62-0.33,1.21-0.39,1.79-0.18c0.58,0.2,1.01,0.64,1.3,1.3
		c0.29,0.66,0.26,1.52-0.06,2.59c-0.33,0.99-0.68,2.06-1.05,3.21c-0.37,1.15-0.78,2.35-1.23,3.58c-0.45,1.24-0.91,2.43-1.36,3.58
		c-0.45,1.15-0.93,2.18-1.42,3.09c-2.64,4.94-5.25,8.89-7.84,11.86c-2.6,2.97-5,4.49-7.23,4.57c-1.81,0.08-3.4-0.25-4.76-0.99
		c-1.36-0.74-2.53-1.77-3.52-3.09c-0.98-1.32-1.77-2.89-2.34-4.7c-0.58-1.81-1.03-3.79-1.36-5.93c-2.06,4.45-4.38,8.01-6.98,10.69
		c-2.59,2.68-5.37,4.02-8.34,4.02c-3.71,0-6.59-0.87-8.65-2.6c-2.06-1.73-3.58-4.01-4.57-6.85c-0.98-2.84-1.54-6.05-1.67-9.64
		c-0.12-3.59-0.06-7.23,0.18-10.93c0.08-2.22,0.29-4.57,0.62-7.04c0.33-2.47,0.69-4.88,1.11-7.23c0.41-2.35,0.83-4.51,1.23-6.49
		c0.42-1.98,0.75-3.62,0.99-4.94c0.33-0.82,1.13-1.5,2.41-2.04c1.28-0.53,2.61-0.88,4.01-1.05c1.4-0.17,2.61-0.08,3.65,0.25
		c1.03,0.33,1.5,0.91,1.42,1.73c-0.33,2.22-0.97,5.7-1.92,10.44c-0.95,4.73-1.71,10.48-2.28,17.23c-0.25,2.72-0.4,5.29-0.43,7.72
		c-0.05,2.43,0.1,4.57,0.43,6.43c0.33,1.85,0.88,3.31,1.67,4.38c0.78,1.07,1.91,1.61,3.39,1.61c1.65,0,3.25-0.74,4.82-2.22
		c1.57-1.48,3.17-3.95,4.82-7.41c0.91-1.81,1.73-4.02,2.47-6.61c0.74-2.59,1.32-5.33,1.73-8.21c0-0.16,0.02-0.37,0.06-0.62
		c0.04-0.25,0.07-0.45,0.07-0.62c0.32-0.83,0.78-1.24,1.36-1.24c0.58,0,1.13,0.27,1.67,0.8c0.53,0.54,0.97,1.28,1.3,2.22
		c0.33,0.95,0.45,1.96,0.37,3.03c-0.08,0.91-0.27,1.93-0.56,3.09c-0.29,1.16-0.64,2.35-1.05,3.58c-0.41,1.24-0.84,2.43-1.3,3.59
		c-0.45,1.15-0.88,2.22-1.3,3.21l-0.74,1.73c-0.41-2.39-0.62-4.88-0.62-7.47s0.12-5.21,0.37-7.84c0-1.07,0.12-2.22,0.37-3.46
		c0-0.58,0.04-0.99,0.13-1.23c0.32-2.47,0.72-5.17,1.17-8.09c0.45-2.92,0.93-5.76,1.42-8.52c0.49-2.76,0.95-5.25,1.36-7.47
		C1221.3,148.08,1221.63,146.39,1221.87,145.23z"/>
	<path class="st2" d="M1277.59,208.98c-4.04,0.08-7.23-0.77-9.58-2.56c-2.35-1.78-4.12-4.09-5.31-6.91
		c-1.2-2.83-1.86-6.07-1.98-9.74c-0.12-3.66,0.04-7.33,0.49-10.99c0.45-3.67,1.09-7.18,1.91-10.56c0.82-3.38,1.65-6.26,2.47-8.65
		c-1.98-0.33-3.65-0.8-5-1.42c-1.36-0.62-2.99-1.63-4.88-3.03c-0.33,1.48-0.83,3.25-1.48,5.31c-0.66,2.06-1.57,5.19-2.72,9.39
		c-0.49,1.65-1.01,3.32-1.55,5c-0.54,1.69-1.09,3.4-1.67,5.13c-0.33,0.99-0.82,1.63-1.48,1.91c-0.66,0.29-1.28,0.35-1.85,0.19
		c-0.58-0.17-1.03-0.56-1.36-1.18c-0.33-0.62-0.33-1.34,0-2.16l1.36-4.32c1.4-4.7,2.47-8.77,3.21-12.23
		c0.74-3.46,1.23-6.51,1.48-9.14c0.16-0.99,0.21-1.75,0.12-2.29c-0.08-0.53-0.16-0.88-0.25-1.05c-0.17-0.41-0.43-0.8-0.8-1.17
		c-0.37-0.37-0.68-0.68-0.93-0.93c-0.33-0.41-0.05-1.24,0.86-2.47c0.91-1.24,1.99-2.47,3.27-3.71c1.27-1.24,2.51-2.24,3.71-3.03
		c1.19-0.78,1.91-0.92,2.16-0.43c0.58,1.24,1.48,2.51,2.72,3.83c1.23,1.32,2.53,2.53,3.89,3.65c1.36,1.11,2.61,2.06,3.77,2.84
		c1.15,0.78,1.93,1.21,2.35,1.3c1.89,0.58,3.37,1.24,4.45,1.98c1.07,0.74,1.83,1.52,2.29,2.35c0.45,0.82,0.68,1.69,0.68,2.59
		c0,0.91-0.12,1.77-0.37,2.59c-1.23,4.37-2.34,9.04-3.34,14.02c-0.99,4.98-1.54,9.55-1.67,13.71c-0.12,4.16,0.37,7.57,1.48,10.25
		c1.11,2.67,3.1,3.93,5.99,3.77c1.64,0,3.21-0.66,4.69-1.98c1.48-1.32,2.88-3.05,4.2-5.19c1.32-2.14,2.55-4.59,3.71-7.35
		c1.15-2.76,2.22-5.66,3.21-8.71c0.25-0.82,0.7-1.42,1.36-1.79c0.66-0.37,1.27-0.49,1.85-0.37c0.58,0.12,1.03,0.48,1.36,1.05
		c0.33,0.58,0.37,1.36,0.12,2.35c-1.16,3.62-2.43,7.25-3.83,10.87c-1.4,3.62-3.02,6.85-4.88,9.68c-1.85,2.83-3.95,5.14-6.3,6.92
		C1283.21,208.09,1280.56,208.98,1277.59,208.98z"/>
	<path class="st2" d="M1315.76,209.72c-5.44-0.17-10.03-2.08-13.78-5.74c-3.75-3.66-6.15-9.16-7.23-16.49
		c-0.74-0.74-1.11-1.56-1.11-2.47l0.74-1.6c-0.08-0.49-0.12-1.01-0.12-1.54c0-0.53,0-1.09,0-1.67c0-0.99,0.1-2.08,0.31-3.27
		c0.21-1.19,0.55-2.33,1.05-3.4c0.49-1.07,1.13-2.04,1.91-2.9c0.78-0.86,1.75-1.46,2.9-1.79c1.4-3.29,2.67-6.44,3.83-9.45
		c1.15-3.01,2.1-5.7,2.84-8.09c-0.33-2.3-0.41-4.36-0.25-6.18c0.16-1.81,0.69-3.35,1.6-4.63c0.91-1.28,2.27-2.21,4.08-2.78
		c1.81-0.58,4.2-0.78,7.16-0.62c-1.15,5.52-1.13,10.85,0.06,16c1.2,5.15,2.73,10.05,4.63,14.7c1.89,4.65,3.71,9.02,5.44,13.09
		c1.73,4.08,2.51,7.72,2.35,10.93c-0.25,3.46-1.07,6.55-2.47,9.27c1.56-0.66,3.11-1.77,4.63-3.34c1.52-1.56,2.98-3.42,4.39-5.56
		c1.4-2.14,2.75-4.49,4.08-7.05c1.32-2.55,2.51-5.1,3.58-7.66c0.33-0.82,0.82-1.4,1.48-1.73c0.66-0.33,1.28-0.43,1.85-0.31
		c0.58,0.12,1.03,0.45,1.36,0.99c0.33,0.54,0.33,1.29,0,2.29c-2.14,6.18-4.51,11.41-7.1,15.69c-2.6,4.28-5.38,7.66-8.34,10.13
		c-2.97,2.47-6.09,4.12-9.39,4.94C1322.97,210.3,1319.47,210.38,1315.76,209.72z M1302.91,177.11c-0.99,2.72-2.14,5.52-3.46,8.4
		c0,2.64,0.41,4.96,1.23,6.98c0.82,2.02,1.87,3.73,3.15,5.13c1.28,1.4,2.68,2.43,4.2,3.09c1.52,0.66,3.03,0.95,4.51,0.87
		c2.31-0.17,3.95-1.36,4.94-3.58c0.99-2.23,1.24-5.19,0.74-8.9c-0.25-1.56-0.72-3.46-1.42-5.68c-0.7-2.22-1.48-4.65-2.34-7.29
		c-0.86-2.64-1.75-5.39-2.66-8.28c-0.91-2.88-1.65-5.76-2.22-8.65c-0.82,1.97-1.54,3.81-2.16,5.5c-0.62,1.69-1.22,3.32-1.8,4.88
		c0.74,0.49,1.36,1.11,1.86,1.86c0.49,0.74,0.82,1.56,0.99,2.47c0.17,0.91,0.1,1.85-0.19,2.84c-0.29,0.99-0.88,1.94-1.79,2.84
		C1305.43,177.6,1304.23,176.78,1302.91,177.11z"/>
</g>
<g>
	<path class="st2" d="M640.07,248.18l18.15,46.29h-4.73l-5.64-14.39h-21.07l-5.58,14.39h-4.67l18.61-46.29H640.07z M646.36,276.32
		l-8.95-23.73l-9.27,23.73H646.36z"/>
	<path class="st2" d="M679.81,261.02v3.44h-6.81v22.56c0,1.34,0.18,2.39,0.55,3.15c0.37,0.75,1.29,1.18,2.76,1.26
		c1.17,0,2.33-0.07,3.5-0.2v3.44c-0.61,0-1.21,0.02-1.82,0.07c-0.61,0.04-1.21,0.07-1.82,0.07c-2.72,0-4.63-0.53-5.7-1.59
		c-1.08-1.06-1.6-3.01-1.56-5.87v-22.89h-5.83v-3.44h5.83v-10.05h4.09v10.05H679.81z"/>
	<path class="st2" d="M693.59,283.42c0.41,1.58,1.07,2.99,1.98,4.25c0.91,1.25,2.05,2.29,3.44,3.11c1.38,0.82,3.05,1.23,4.99,1.23
		c2.98,0,5.32-0.78,7-2.33c1.69-1.56,2.85-3.63,3.5-6.22h4.08c-0.86,3.8-2.45,6.74-4.76,8.82c-2.31,2.08-5.59,3.11-9.82,3.11
		c-2.64,0-4.92-0.46-6.84-1.39c-1.92-0.93-3.49-2.2-4.7-3.82c-1.21-1.62-2.11-3.5-2.69-5.64c-0.58-2.14-0.87-4.4-0.87-6.78
		c0-2.2,0.29-4.36,0.87-6.48c0.58-2.12,1.48-4.01,2.69-5.67c1.21-1.66,2.78-3,4.7-4.02c1.92-1.02,4.2-1.52,6.84-1.52
		c2.68,0,4.97,0.54,6.87,1.62c1.9,1.08,3.45,2.5,4.64,4.25c1.19,1.75,2.04,3.76,2.56,6.03c0.52,2.27,0.73,4.57,0.65,6.91h-25.74
		C692.97,280.32,693.18,281.84,693.59,283.42z M713.82,270.94c-0.5-1.43-1.2-2.69-2.11-3.79c-0.91-1.1-2.01-1.99-3.31-2.66
		c-1.3-0.67-2.77-1-4.41-1c-1.69,0-3.18,0.34-4.47,1c-1.3,0.67-2.4,1.56-3.31,2.66c-0.91,1.1-1.63,2.38-2.17,3.82
		c-0.54,1.45-0.9,2.93-1.07,4.44h21.65C714.58,273.85,714.31,272.36,713.82,270.94z"/>
	<path class="st2" d="M733.24,248.18v46.29h-4.08v-46.29H733.24z"/>
	<path class="st2" d="M750.09,248.18v6.55h-4.09v-6.55H750.09z M750.09,261.02v33.45h-4.09v-33.45H750.09z"/>
	<path class="st2" d="M765.81,283.42c0.41,1.58,1.07,2.99,1.98,4.25c0.91,1.25,2.05,2.29,3.44,3.11c1.38,0.82,3.05,1.23,4.99,1.23
		c2.98,0,5.32-0.78,7-2.33c1.69-1.56,2.85-3.63,3.5-6.22h4.09c-0.87,3.8-2.46,6.74-4.77,8.82c-2.31,2.08-5.59,3.11-9.82,3.11
		c-2.64,0-4.92-0.46-6.84-1.39c-1.92-0.93-3.49-2.2-4.7-3.82c-1.21-1.62-2.11-3.5-2.69-5.64c-0.58-2.14-0.87-4.4-0.87-6.78
		c0-2.2,0.29-4.36,0.87-6.48c0.58-2.12,1.48-4.01,2.69-5.67c1.21-1.66,2.78-3,4.7-4.02c1.92-1.02,4.2-1.52,6.84-1.52
		c2.68,0,4.97,0.54,6.87,1.62c1.9,1.08,3.44,2.5,4.63,4.25c1.19,1.75,2.04,3.76,2.56,6.03c0.52,2.27,0.74,4.57,0.65,6.91H765.2
		C765.2,280.32,765.4,281.84,765.81,283.42z M786.04,270.94c-0.5-1.43-1.2-2.69-2.11-3.79c-0.91-1.1-2.01-1.99-3.3-2.66
		c-1.3-0.67-2.77-1-4.41-1c-1.69,0-3.18,0.34-4.47,1c-1.3,0.67-2.4,1.56-3.31,2.66c-0.91,1.1-1.63,2.38-2.17,3.82
		c-0.54,1.45-0.9,2.93-1.07,4.44h21.65C786.81,273.85,786.54,272.36,786.04,270.94z"/>
	<path class="st2" d="M805.07,261.02v7.85h0.13c1.04-2.72,2.65-4.82,4.83-6.29c2.18-1.47,4.79-2.14,7.81-2.01v4.08
		c-1.86-0.09-3.55,0.16-5.06,0.75c-1.51,0.58-2.82,1.42-3.92,2.49c-1.1,1.08-1.96,2.37-2.56,3.86c-0.61,1.49-0.91,3.12-0.91,4.89
		v17.83h-4.09v-33.45H805.07z"/>
	<path class="st2" d="M875.15,294.47v-6.35h-0.13c-0.43,1.08-1.07,2.07-1.91,2.98c-0.84,0.91-1.81,1.68-2.88,2.3
		c-1.08,0.63-2.24,1.11-3.47,1.46c-1.23,0.35-2.46,0.52-3.66,0.52c-2.55,0-4.76-0.46-6.65-1.39c-1.88-0.93-3.45-2.2-4.7-3.82
		c-1.25-1.62-2.18-3.5-2.79-5.64c-0.61-2.14-0.91-4.4-0.91-6.78c0-2.38,0.3-4.64,0.91-6.77c0.6-2.14,1.53-4.02,2.79-5.64
		c1.26-1.62,2.82-2.91,4.7-3.86c1.88-0.95,4.09-1.43,6.65-1.43c1.25,0,2.47,0.15,3.66,0.45c1.19,0.3,2.3,0.77,3.34,1.39
		c1.04,0.63,1.95,1.39,2.76,2.3c0.8,0.91,1.42,1.97,1.85,3.18h0.13v-19.19h4.09v46.29H875.15z M852.75,282.9
		c0.41,1.71,1.06,3.23,1.95,4.57c0.89,1.34,2.02,2.43,3.41,3.28c1.38,0.84,3.04,1.26,4.99,1.26c2.16,0,3.99-0.42,5.48-1.26
		c1.49-0.85,2.7-1.94,3.63-3.28c0.93-1.34,1.6-2.86,2.01-4.57c0.41-1.71,0.62-3.42,0.62-5.16c0-1.73-0.21-3.45-0.62-5.15
		c-0.41-1.71-1.08-3.23-2.01-4.57c-0.93-1.34-2.14-2.43-3.63-3.28c-1.49-0.84-3.32-1.26-5.48-1.26c-1.95,0-3.61,0.42-4.99,1.26
		c-1.38,0.84-2.52,1.94-3.41,3.28c-0.89,1.34-1.53,2.86-1.95,4.57c-0.41,1.71-0.61,3.43-0.61,5.15
		C852.14,279.48,852.34,281.19,852.75,282.9z"/>
	<path class="st2" d="M899.53,255.12c0,0.95-0.12,1.89-0.36,2.82c-0.24,0.93-0.59,1.79-1.07,2.59c-0.48,0.8-1.07,1.5-1.78,2.11
		c-0.71,0.61-1.57,1.04-2.56,1.3v-2.79c0.56-0.17,1.04-0.49,1.43-0.94c0.39-0.45,0.71-0.98,0.97-1.59c0.26-0.6,0.44-1.22,0.55-1.85
		c0.11-0.62,0.14-1.2,0.1-1.72h-2.72v-6.87h5.45V255.12z"/>
	<path class="st2" d="M915.28,266.2c0.69-1.43,1.63-2.59,2.82-3.5c1.19-0.91,2.58-1.58,4.18-2.01c1.6-0.43,3.37-0.65,5.31-0.65
		c1.47,0,2.94,0.14,4.41,0.42c1.47,0.28,2.79,0.81,3.95,1.59c1.17,0.78,2.12,1.87,2.85,3.27c0.73,1.41,1.1,3.23,1.1,5.48v17.77
		c0,1.64,0.8,2.46,2.4,2.46c0.48,0,0.91-0.09,1.3-0.26v3.44c-0.48,0.09-0.9,0.15-1.27,0.19c-0.37,0.04-0.83,0.07-1.39,0.07
		c-1.04,0-1.87-0.14-2.5-0.42c-0.63-0.28-1.11-0.68-1.46-1.2c-0.35-0.52-0.57-1.13-0.68-1.85c-0.11-0.71-0.16-1.5-0.16-2.37h-0.13
		c-0.73,1.08-1.48,2.04-2.24,2.88c-0.76,0.84-1.6,1.55-2.53,2.11c-0.93,0.56-1.99,0.99-3.18,1.3c-1.19,0.3-2.6,0.45-4.25,0.45
		c-1.56,0-3.01-0.18-4.38-0.55c-1.36-0.37-2.55-0.95-3.56-1.75c-1.02-0.8-1.81-1.81-2.4-3.05c-0.58-1.23-0.88-2.69-0.88-4.37
		c0-2.33,0.52-4.16,1.56-5.48c1.04-1.32,2.41-2.32,4.12-3.02c1.71-0.69,3.63-1.18,5.77-1.46c2.14-0.28,4.31-0.55,6.51-0.81
		c0.86-0.09,1.62-0.2,2.27-0.33c0.65-0.13,1.19-0.35,1.62-0.68c0.43-0.32,0.77-0.77,1-1.33c0.24-0.56,0.36-1.3,0.36-2.2
		c0-1.38-0.23-2.52-0.68-3.4c-0.45-0.89-1.08-1.59-1.88-2.11c-0.8-0.52-1.73-0.87-2.79-1.07c-1.06-0.2-2.19-0.29-3.4-0.29
		c-2.59,0-4.71,0.62-6.35,1.85c-1.64,1.23-2.51,3.21-2.59,5.93h-4.08C914.18,269.32,914.59,267.63,915.28,266.2z M935.7,276.19
		c-0.26,0.48-0.76,0.82-1.49,1.04c-0.74,0.22-1.38,0.37-1.94,0.45c-1.73,0.3-3.51,0.57-5.35,0.81c-1.84,0.24-3.51,0.59-5.02,1.07
		c-1.51,0.48-2.76,1.16-3.73,2.04c-0.97,0.89-1.46,2.15-1.46,3.79c0,1.04,0.21,1.96,0.62,2.76c0.41,0.8,0.96,1.49,1.65,2.08
		c0.69,0.58,1.49,1.03,2.4,1.33c0.91,0.3,1.84,0.45,2.79,0.45c1.55,0,3.05-0.24,4.47-0.71c1.43-0.48,2.67-1.17,3.73-2.08
		c1.06-0.91,1.9-2.01,2.53-3.31c0.62-1.3,0.94-2.77,0.94-4.41v-5.32H935.7z"/>
	<path class="st2" d="M956.71,261.02v7.85h0.13c1.04-2.72,2.65-4.82,4.83-6.29c2.18-1.47,4.79-2.14,7.81-2.01v4.08
		c-1.86-0.09-3.55,0.16-5.06,0.75c-1.51,0.58-2.82,1.42-3.92,2.49c-1.1,1.08-1.96,2.37-2.56,3.86c-0.61,1.49-0.91,3.12-0.91,4.89
		v17.83h-4.09v-33.45H956.71z"/>
	<path class="st2" d="M991.52,261.02v3.44h-6.81v22.56c0,1.34,0.18,2.39,0.55,3.15c0.37,0.75,1.29,1.18,2.75,1.26
		c1.17,0,2.33-0.07,3.5-0.2v3.44c-0.61,0-1.21,0.02-1.81,0.07c-0.61,0.04-1.21,0.07-1.82,0.07c-2.72,0-4.62-0.53-5.7-1.59
		c-1.08-1.06-1.6-3.01-1.56-5.87v-22.89h-5.84v-3.44h5.84v-10.05h4.08v10.05H991.52z"/>
	<path class="st2" d="M1031.46,264.45v30.02h-4.08v-30.02h-5.71v-3.44h5.71v-3.05c0-1.43,0.11-2.74,0.32-3.96
		c0.21-1.21,0.62-2.25,1.23-3.11c0.61-0.86,1.44-1.53,2.5-2.01c1.06-0.48,2.41-0.71,4.05-0.71c0.61,0,1.17,0.02,1.68,0.06
		c0.52,0.04,1.1,0.11,1.75,0.2v3.5c-0.56-0.09-1.08-0.16-1.56-0.23c-0.48-0.06-0.95-0.1-1.43-0.1c-1.13,0-1.99,0.17-2.59,0.52
		c-0.61,0.35-1.05,0.81-1.33,1.4c-0.28,0.58-0.44,1.26-0.49,2.04c-0.04,0.78-0.06,1.62-0.06,2.53v2.92h6.61v3.44H1031.46z"/>
	<path class="st2" d="M1050.97,248.18v46.29h-4.08v-46.29H1050.97z"/>
	<path class="st2" d="M1084.59,261.47c1.97,0.95,3.62,2.23,4.96,3.82c1.34,1.6,2.36,3.47,3.05,5.61c0.69,2.14,1.04,4.42,1.04,6.84
		c0,2.42-0.35,4.7-1.04,6.84c-0.69,2.14-1.71,4.01-3.05,5.61c-1.34,1.6-2.99,2.87-4.96,3.79c-1.97,0.93-4.23,1.39-6.78,1.39
		c-2.55,0-4.81-0.46-6.77-1.39c-1.97-0.93-3.62-2.19-4.96-3.79c-1.34-1.6-2.36-3.47-3.05-5.61c-0.69-2.14-1.04-4.42-1.04-6.84
		c0-2.42,0.34-4.7,1.04-6.84c0.69-2.14,1.71-4.01,3.05-5.61c1.34-1.6,2.99-2.87,4.96-3.82c1.97-0.95,4.23-1.43,6.77-1.43
		C1080.36,260.05,1082.62,260.52,1084.59,261.47z M1072.69,264.71c-1.47,0.82-2.69,1.9-3.66,3.24c-0.97,1.34-1.71,2.86-2.2,4.57
		c-0.5,1.71-0.74,3.45-0.74,5.22c0,1.77,0.25,3.51,0.74,5.22c0.5,1.71,1.23,3.23,2.2,4.57c0.97,1.34,2.19,2.42,3.66,3.24
		c1.47,0.82,3.18,1.23,5.12,1.23c1.95,0,3.65-0.41,5.12-1.23c1.47-0.82,2.69-1.9,3.66-3.24c0.97-1.34,1.71-2.86,2.2-4.57
		c0.5-1.71,0.74-3.45,0.74-5.22c0-1.77-0.25-3.51-0.74-5.22c-0.5-1.71-1.23-3.23-2.2-4.57c-0.97-1.34-2.19-2.42-3.66-3.24
		c-1.47-0.82-3.18-1.23-5.12-1.23C1075.87,263.48,1074.16,263.89,1072.69,264.71z"/>
	<path class="st2" d="M1108.35,261.02v7.85h0.13c1.04-2.72,2.65-4.82,4.83-6.29c2.18-1.47,4.79-2.14,7.81-2.01v4.08
		c-1.86-0.09-3.55,0.16-5.06,0.75c-1.51,0.58-2.82,1.42-3.92,2.49c-1.1,1.08-1.96,2.37-2.56,3.86c-0.61,1.49-0.91,3.12-0.91,4.89
		v17.83h-4.09v-33.45H1108.35z"/>
	<path class="st2" d="M1130.71,266.2c0.69-1.43,1.63-2.59,2.82-3.5c1.19-0.91,2.58-1.58,4.18-2.01c1.6-0.43,3.37-0.65,5.32-0.65
		c1.47,0,2.94,0.14,4.41,0.42c1.47,0.28,2.79,0.81,3.95,1.59c1.17,0.78,2.12,1.87,2.85,3.27c0.73,1.41,1.1,3.23,1.1,5.48v17.77
		c0,1.64,0.8,2.46,2.4,2.46c0.48,0,0.91-0.09,1.3-0.26v3.44c-0.48,0.09-0.9,0.15-1.27,0.19c-0.37,0.04-0.83,0.07-1.39,0.07
		c-1.04,0-1.87-0.14-2.5-0.42c-0.63-0.28-1.11-0.68-1.46-1.2c-0.35-0.52-0.57-1.13-0.68-1.85c-0.11-0.71-0.16-1.5-0.16-2.37h-0.13
		c-0.73,1.08-1.48,2.04-2.24,2.88c-0.76,0.84-1.6,1.55-2.53,2.11c-0.93,0.56-1.99,0.99-3.18,1.3c-1.19,0.3-2.6,0.45-4.25,0.45
		c-1.56,0-3.01-0.18-4.38-0.55c-1.36-0.37-2.55-0.95-3.56-1.75c-1.02-0.8-1.81-1.81-2.4-3.05c-0.58-1.23-0.88-2.69-0.88-4.37
		c0-2.33,0.52-4.16,1.56-5.48c1.04-1.32,2.41-2.32,4.12-3.02c1.71-0.69,3.63-1.18,5.77-1.46c2.14-0.28,4.31-0.55,6.52-0.81
		c0.86-0.09,1.62-0.2,2.27-0.33c0.65-0.13,1.19-0.35,1.62-0.68c0.43-0.32,0.77-0.77,1-1.33c0.24-0.56,0.36-1.3,0.36-2.2
		c0-1.38-0.23-2.52-0.68-3.4c-0.45-0.89-1.08-1.59-1.88-2.11c-0.8-0.52-1.73-0.87-2.79-1.07c-1.06-0.2-2.19-0.29-3.4-0.29
		c-2.59,0-4.71,0.62-6.35,1.85c-1.64,1.23-2.51,3.21-2.59,5.93h-4.08C1129.61,269.32,1130.02,267.63,1130.71,266.2z M1151.14,276.19
		c-0.26,0.48-0.76,0.82-1.49,1.04c-0.73,0.22-1.38,0.37-1.94,0.45c-1.73,0.3-3.51,0.57-5.35,0.81c-1.84,0.24-3.51,0.59-5.02,1.07
		c-1.51,0.48-2.76,1.16-3.73,2.04c-0.97,0.89-1.46,2.15-1.46,3.79c0,1.04,0.21,1.96,0.62,2.76c0.41,0.8,0.96,1.49,1.65,2.08
		c0.69,0.58,1.49,1.03,2.4,1.33c0.91,0.3,1.84,0.45,2.79,0.45c1.56,0,3.05-0.24,4.47-0.71c1.43-0.48,2.67-1.17,3.73-2.08
		c1.06-0.91,1.9-2.01,2.53-3.31c0.62-1.3,0.94-2.77,0.94-4.41v-5.32H1151.14z"/>
	<path class="st2" d="M1172.53,248.18v46.29h-4.08v-46.29H1172.53z"/>
</g>
<line class="st3" x1="394.69" y1="294.47" x2="566.64" y2="294.47"/>
<line class="st3" x1="1219.58" y1="294.47" x2="1391.52" y2="294.47"/>
</svg>
